<svg width="17" height="17" viewBox="0 0 17 17" fill="none" xmlns="http://www.w3.org/2000/svg">
<path d="M8.07435 5.83928C6.59618 5.83928 5.38988 7.04558 5.38988 8.52376C5.38988 10.0019 6.59618 11.2082 8.07435 11.2082C9.55253 11.2082 10.7588 10.0019 10.7588 8.52376C10.7588 7.04558 9.55253 5.83928 8.07435 5.83928ZM16.1258 8.52376C16.1258 7.4121 16.1358 6.31052 16.0734 5.20088C16.011 3.91201 15.717 2.76814 14.7745 1.82565C13.83 0.881154 12.6881 0.589144 11.3992 0.526714C10.2876 0.464285 9.186 0.474354 8.07637 0.474354C6.96472 0.474354 5.86313 0.464285 4.7535 0.526714C3.46463 0.589144 2.32075 0.883167 1.37827 1.82565C0.433766 2.77015 0.141756 3.91201 0.0793265 5.20088C0.0168969 6.31254 0.0269662 7.41412 0.0269662 8.52376C0.0269662 9.63339 0.0168969 10.737 0.0793265 11.8466C0.141756 13.1355 0.43578 14.2794 1.37827 15.2219C2.32277 16.1664 3.46463 16.4584 4.7535 16.5208C5.86515 16.5832 6.96673 16.5732 8.07637 16.5732C9.18802 16.5732 10.2896 16.5832 11.3992 16.5208C12.6881 16.4584 13.832 16.1643 14.7745 15.2219C15.719 14.2774 16.011 13.1355 16.0734 11.8466C16.1379 10.737 16.1258 9.63541 16.1258 8.52376ZM8.07435 12.6542C5.78862 12.6542 3.94393 10.8095 3.94393 8.52376C3.94393 6.23802 5.78862 4.39333 8.07435 4.39333C10.3601 4.39333 12.2048 6.23802 12.2048 8.52376C12.2048 10.8095 10.3601 12.6542 8.07435 12.6542ZM12.3739 5.1888C11.8403 5.1888 11.4093 4.75784 11.4093 4.22416C11.4093 3.69049 11.8403 3.25952 12.3739 3.25952C12.9076 3.25952 13.3386 3.69049 13.3386 4.22416C13.3387 4.35089 13.3139 4.47639 13.2655 4.5935C13.2171 4.71061 13.146 4.81701 13.0564 4.90662C12.9668 4.99623 12.8604 5.06728 12.7433 5.1157C12.6262 5.16412 12.5007 5.18896 12.3739 5.1888Z" fill="#555555"/>
</svg>
