<svg width="14" height="18" viewBox="0 0 14 18" fill="none" xmlns="http://www.w3.org/2000/svg">
<path d="M0.921172 6.70543C0.921172 5.97272 1.04925 5.28051 1.30165 4.63445C1.5428 4.00694 1.90108 3.43101 2.35739 2.93736C2.81278 2.45018 3.33389 2.02891 3.90568 1.68573C4.49233 1.33082 5.12745 1.06307 5.79113 0.890865C6.46282 0.71449 7.15446 0.625541 7.84892 0.626225C8.92161 0.626225 9.9199 0.853194 10.8457 1.30525C11.7594 1.74906 12.5371 2.43016 13.0975 3.27734C13.6757 4.13907 13.963 5.11381 13.963 6.20063C13.963 6.85234 13.8989 7.48993 13.768 8.11339C13.6395 8.7365 13.4352 9.34154 13.1596 9.91502C12.897 10.4702 12.5536 10.9833 12.1406 11.4379C11.7256 11.8852 11.2229 12.2423 10.6639 12.487C10.057 12.753 9.40053 12.8869 8.73796 12.8797C8.27743 12.8797 7.81784 12.7714 7.3639 12.5539C6.90996 12.3373 6.58411 12.0397 6.38822 11.6583C6.31947 11.9229 6.22529 12.3053 6.10003 12.8053C5.97948 13.3045 5.89849 13.6266 5.8627 13.7726C5.82503 13.9176 5.75534 14.1596 5.65363 14.4949C5.58465 14.7429 5.49616 14.9851 5.38899 15.2191L5.06501 15.8539C4.92491 16.1263 4.76828 16.3898 4.59601 16.6431C4.42554 16.8899 4.21458 17.1846 3.96313 17.5237L3.8228 17.5736L3.72957 17.4719C3.62879 16.4048 3.577 15.7663 3.577 15.5554C3.577 14.9309 3.6514 14.2303 3.79832 13.4524C3.94241 12.6754 4.17032 11.6988 4.4764 10.5244C4.78248 9.35089 4.95765 8.66057 5.00474 8.4562C4.78907 8.01639 4.67982 7.4419 4.67982 6.73556C4.67982 6.17144 4.85594 5.6431 5.20911 5.14584C5.56322 4.65046 6.01056 4.40277 6.55303 4.40277C6.96835 4.40277 7.29044 4.54027 7.52118 4.81621C7.75286 5.09121 7.86587 5.43779 7.86587 5.86065C7.86587 6.30894 7.71707 6.95782 7.41758 7.80637C7.1181 8.65586 6.9693 9.28967 6.9693 9.71065C6.9693 10.1373 7.12186 10.4942 7.427 10.7739C7.72813 11.0538 8.12636 11.2054 8.53736 11.1968C8.91031 11.1968 9.25594 11.112 9.57709 10.9416C9.89322 10.7761 10.1669 10.5398 10.3767 10.2512C10.8336 9.62429 11.1594 8.91158 11.3345 8.15577C11.4249 7.75834 11.4946 7.38068 11.5379 7.02563C11.584 6.6687 11.6038 6.33154 11.6038 6.01133C11.6038 4.83693 11.2309 3.92152 10.4897 3.26604C9.74473 2.61056 8.77469 2.2847 7.58145 2.2847C6.22435 2.2847 5.0895 2.72357 4.18068 3.60414C3.27092 4.48188 2.81321 5.59789 2.81321 6.95123C2.81321 7.24978 2.85842 7.53796 2.94412 7.81673C3.02794 8.09455 3.11929 8.31587 3.21818 8.47974C3.31612 8.64079 3.40842 8.79807 3.49224 8.9431C3.577 9.08813 3.62126 9.19173 3.62126 9.25389C3.62126 9.44413 3.57135 9.69182 3.47058 9.9979C3.36604 10.304 3.24266 10.4565 3.09386 10.4565C3.07974 10.4565 3.02135 10.4462 2.91963 10.4245C2.56737 10.3194 2.24925 10.1228 1.99763 9.85474C1.73057 9.57697 1.51982 9.25012 1.37699 8.89224C1.23458 8.53564 1.12365 8.16725 1.04549 7.7913C0.961039 7.43557 0.919306 7.07104 0.921172 6.70543V6.70543Z" fill="#555555"/>
</svg>
