<svg width="18" height="15" viewBox="0 0 18 15" fill="none" xmlns="http://www.w3.org/2000/svg">
<path d="M17.7737 1.95664C17.1505 2.22549 16.4723 2.41898 15.7737 2.49433C16.499 2.06344 17.0421 1.3827 17.3012 0.579836C16.6206 0.98471 15.875 1.26861 15.0975 1.41896C14.7725 1.07155 14.3795 0.794789 13.9429 0.605921C13.5063 0.417053 13.0355 0.320125 12.5598 0.321175C10.6351 0.321175 9.0872 1.88129 9.0872 3.79578C9.0872 4.06463 9.11979 4.33347 9.17275 4.59213C6.29082 4.44142 3.7205 3.06461 2.01171 0.956625C1.70035 1.48844 1.53719 2.09397 1.5392 2.71022C1.5392 3.91595 2.15225 4.97911 3.08709 5.60437C2.53617 5.58267 1.99815 5.43125 1.5168 5.16241V5.20518C1.5168 6.8936 2.7103 8.29281 4.30096 8.61461C4.0023 8.69219 3.69506 8.73188 3.38649 8.73274C3.16041 8.73274 2.94656 8.71034 2.73067 8.67979C3.17059 10.0566 4.45168 11.0566 5.97717 11.0892C4.78366 12.024 3.28872 12.574 1.66547 12.574C1.37423 12.574 1.10538 12.5638 0.826355 12.5312C2.3661 13.519 4.19302 14.0893 6.16047 14.0893C12.5476 14.0893 16.0425 8.79791 16.0425 4.20516C16.0425 4.05444 16.0425 3.90373 16.0323 3.75301C16.7085 3.25809 17.3012 2.64505 17.7737 1.95664Z" fill="#555555"/>
</svg>
